<svg width="1000" height="1000" viewBox="0 0 1000 1000" fill="none" xmlns="http://www.w3.org/2000/svg">
<path d="M342.831 64.1166C377.022 59.7793 546.663 58.4648 611.889 62.1449C706.31 67.5336 781.795 91.9797 842.681 137.061C859.777 149.81 895.414 185.428 908.039 202.383C948.674 257.322 967.347 311.472 970.766 384.811C972.476 418.852 972.344 476.024 970.766 496.66C964.191 578.147 934.472 644.127 879.503 699.066C852.413 726.009 830.582 741.781 795.076 760.05C767.197 774.376 735.505 784.759 704.469 789.622C664.623 795.8 660.941 795.932 524.439 796.457C417 796.983 393.723 797.377 390.83 798.823C388.857 799.874 377.811 806.446 366.37 813.675C310.611 848.242 168.192 932.753 157.54 937.616C150.176 940.901 145.442 940.77 143.469 937.353C141.628 933.673 142.549 926.706 146.888 911.723C152.017 894.374 165.43 845.218 171.874 820.509C175.03 808.549 179.896 790.017 182.921 779.108C185.945 768.33 188.312 758.079 188.312 756.501C188.312 754.136 186.208 752.427 177.529 748.09C150.702 734.553 114.275 705.243 93.7605 680.665C61.1473 641.499 41.0268 600.36 33.1365 556.33C29.4543 535.17 27.8761 501.523 28.0076 446.584C28.4021 366.148 30.1118 342.227 37.739 309.895C50.495 255.745 77.3224 207.903 117.431 167.29C140.708 143.633 160.565 128.781 191.6 111.695C236.969 86.5912 284.837 71.6082 342.831 64.1166ZM280.501 195.645L279.501 318.145L497.501 319.145L350.501 526.145H467.501L276.001 804.645C276.161 804.558 346.313 766.76 388.501 738.145C448.795 697.248 482.576 672.731 533.001 620.145C598.456 551.884 671.001 421.145 671.001 421.145H565.501L723.501 195.645H280.501Z" fill="#059669"/>
</svg>
