<svg width="1048" height="374" viewBox="0 0 1048 374" fill="none" xmlns="http://www.w3.org/2000/svg">
<path d="M750.485 323.83C750.253 315.619 749.906 286.015 749.791 257.915L749.444 206.686H762.28H775.001V215.012C775.001 223.222 775.001 223.338 776.966 220.563C787.952 204.026 809.462 199.516 826.461 210.27C832.59 214.087 839.991 224.957 842.766 233.746C845.31 242.303 846.12 259.302 844.385 266.934C839.759 286.478 828.774 298.504 812.815 301.395C801.135 303.477 788.531 299.43 781.592 291.103C779.973 289.253 778.47 287.634 778.238 287.634C778.007 287.634 778.007 299.083 778.238 313.075L778.585 338.516H764.709H750.832L750.485 323.83ZM806.686 276.07C812.237 271.213 814.897 263.581 814.897 252.942C814.897 238.256 809.346 228.657 799.863 226.807C785.755 224.263 775.463 240.568 778.701 260.459C780.667 272.948 787.027 279.539 797.204 279.539C801.598 279.539 803.448 278.846 806.686 276.07Z" fill="white"/>
<path d="M658.185 161.181C645.927 158.29 632.513 147.651 627.193 136.665C615.051 111.109 625.227 80.1171 649.281 69.0156C658.416 64.7368 672.64 64.1586 683.742 67.5122C702.013 73.063 712.768 90.6404 712.883 114.809V123.135H681.66C663.042 123.135 650.437 123.598 650.437 124.176C650.437 126.952 653.212 132.155 656.566 135.625C664.083 143.488 679 144.645 697.156 138.863L705.829 136.203L706.523 143.257C706.985 147.189 707.101 151.93 706.87 153.78C706.523 157.134 706.06 157.365 696.693 159.794C686.17 162.453 666.742 163.147 658.185 161.181ZM670.559 104.633H687.095L686.17 99.776C685.708 97.0007 685.245 94.4566 685.129 93.994C685.129 93.6471 683.742 91.6812 682.123 89.7153C676.572 83.1237 665.239 82.4299 658.301 88.2119C652.403 93.1845 647.43 107.177 652.287 105.327C653.328 104.98 661.539 104.633 670.559 104.633Z" fill="white"/>
<path d="M751.854 160.603C744.337 158.29 737.862 151.583 735.549 143.835C734.161 139.21 733.698 132.04 733.698 113.075V88.4432H725.025H716.352V78.0355V67.6278H725.025H733.583L733.93 58.1453L734.277 48.7784L745.263 45.0779C751.276 43.112 757.636 41.0304 759.486 40.5679L762.609 39.874V53.7509V67.6278H773.595H784.58V78.0355V88.4432H773.595H762.609V111.687V134.931L766.194 138.4C769.547 141.754 770.01 141.869 777.179 141.291C785.853 140.597 786.084 140.944 785.506 153.202C785.159 160.487 785.043 160.719 781.689 161.413C775.214 162.8 757.521 162.338 751.854 160.603Z" fill="white"/>
<path d="M806.437 160.834C802.968 160.025 799.498 158.984 798.804 158.637C797.879 158.059 797.648 154.474 798.111 147.073C798.458 141.291 798.92 136.319 798.92 136.203C799.036 135.972 801.811 136.897 805.049 138.169C823.783 145.223 841.245 143.373 841.245 134.121C841.245 129.496 837.775 127.183 823.783 122.789C808.865 118.047 803.43 114.694 799.614 107.755C796.492 102.436 796.029 91.7968 798.458 85.5522C804.818 69.2468 825.171 62.1927 852.231 66.934C865.992 69.3624 865.876 69.3624 865.067 75.6071C863.101 90.0622 863.101 89.8309 860.441 89.137C839.973 83.1237 825.055 84.7427 825.055 92.9532C825.055 97.5788 827.946 99.5447 838.932 102.436C852.462 105.905 860.094 109.721 864.951 115.272C869.577 120.707 870.617 124.986 869.924 134.7C868.998 147.651 858.938 158.175 844.483 161.181C836.966 162.8 814.647 162.569 806.437 160.834Z" fill="white"/>
<path d="M659.938 298.736C649.993 293.763 645.02 287.981 643.17 278.961C640.394 265.663 645.598 253.983 656.816 247.969C664.448 243.806 678.672 241.262 692.317 241.494L702.725 241.609L702.378 237.793C701.915 232.705 699.603 229.236 694.861 226.692C689.079 223.569 673.815 224.147 662.829 227.848C658.088 229.467 654.04 230.623 653.924 230.508C653.693 230.392 653.231 225.766 652.884 220.331L652.074 210.386L658.088 208.536C673.699 203.91 694.977 203.332 707.466 207.148C715.33 209.577 723.078 216.515 726.547 224.263C729.207 230.276 729.322 231.317 729.669 265.431L730.016 300.355H717.296H704.46V293.185V286.015L699.834 290.872C692.664 298.273 687.113 300.702 675.549 301.164C666.876 301.627 665.026 301.28 659.938 298.736ZM688.501 280.696C695.093 278.846 699.603 274.451 701.569 267.628C704.575 257.568 704.575 257.568 694.399 257.568C682.603 257.683 677.168 258.955 673.121 262.887C667.454 268.322 668.842 277.111 675.896 280.118C680.406 282.084 682.95 282.199 688.501 280.696Z" fill="white"/>
<path d="M540.463 159.331C540.463 158.175 540.347 130.074 540.231 96.8849L540 36.5204L553.877 36.1735C561.509 35.9422 568.101 35.9422 568.563 36.1735C569.142 36.4047 569.488 59.186 569.488 86.8242V137.012H593.773H618.058V149.155V161.297H579.318C543.238 161.297 540.578 161.181 540.463 159.331Z" fill="white"/>
<path d="M540.25 289.831C540.25 284.049 540.828 278.267 541.637 276.88C542.331 275.492 554.011 258.724 567.425 239.643C580.955 220.563 592.866 203.563 594.023 201.829L595.989 198.591H568.697H541.29L541.637 186.911L541.984 175.231L587.084 175.116L632.184 175L632.531 185.061L632.878 195.237L623.627 208.767C618.539 216.168 605.818 234.324 595.41 248.895L576.561 275.492L605.818 275.839L635.075 276.07V288.212V300.355H587.662H540.25V289.831Z" fill="white"/>
<path d="M280.721 41.3753C292.094 39.9263 348.521 39.4871 370.218 40.7166C401.624 42.5169 426.733 50.6841 446.985 65.7454C452.672 70.0047 464.526 81.9045 468.725 87.5689C482.241 105.923 488.452 124.014 489.59 148.516C490.158 159.889 490.115 178.99 489.59 185.884C487.403 213.108 477.517 235.152 459.233 253.506C450.222 262.508 442.961 267.777 431.15 273.88C421.877 278.667 411.335 282.136 401.012 283.76C387.758 285.824 386.534 285.868 341.129 286.044C305.392 286.219 297.649 286.351 296.687 286.834C296.031 287.185 292.357 289.381 288.551 291.796C270.004 303.345 222.632 331.579 219.088 333.203C216.639 334.301 215.064 334.257 214.408 333.116C213.796 331.886 214.102 329.559 215.546 324.553C217.251 318.757 221.713 302.334 223.856 294.079C224.906 290.083 226.525 283.892 227.531 280.247C228.537 276.647 229.324 273.222 229.324 272.695C229.324 271.904 228.624 271.334 225.737 269.885C216.814 265.362 204.698 255.57 197.874 247.359C187.026 234.273 180.333 220.529 177.709 205.82C176.484 198.75 175.959 187.509 176.003 169.154C176.134 142.281 176.702 134.29 179.239 123.488C183.482 105.397 192.406 89.413 205.747 75.8448C213.49 67.9409 220.095 62.9791 230.418 57.2707C245.509 48.8839 261.431 43.8782 280.721 41.3753ZM259.989 85.3177L259.656 126.244L332.169 126.578L283.273 195.735H322.19L258.492 288.779C258.545 288.75 281.88 276.122 295.912 266.562C315.968 252.899 327.204 244.708 343.977 227.139C365.749 204.334 389.88 160.655 389.88 160.655H354.787L407.342 85.3177H259.989Z" fill="#059669"/>
</svg>
